<svg width="68" height="12" viewBox="0 0 68 12" fill="none" xmlns="http://www.w3.org/2000/svg">
<path d="M5.44253 0.389018C5.64877 -0.129673 6.35123 -0.129672 6.55747 0.389019L7.77476 3.45043C7.86171 3.6691 8.0583 3.81851 8.28399 3.83743L11.4436 4.1024C11.979 4.14729 12.196 4.84611 11.7882 5.21157L9.38085 7.36859C9.2089 7.52266 9.13381 7.76441 9.18635 7.99477L9.92182 11.2199C10.0464 11.7664 9.47813 12.1983 9.01981 11.9055L6.31472 10.1C6.1215 9.97655 5.8785 9.97655 5.68528 10.1L2.98019 11.9055C2.52187 12.1983 1.95357 11.7664 2.07818 11.2199L2.81366 7.99477C2.86619 7.76441 2.7911 7.52266 2.61915 7.36859L0.211837 5.21157C-0.196031 4.84611 0.0210407 4.14729 0.556375 4.1024L3.71601 3.83743C3.9417 3.81851 4.13829 3.6691 4.22524 3.45043L5.44253 0.389018Z" fill="white"/>
<path d="M19.4425 0.389018C19.6488 -0.129673 20.3512 -0.129672 20.5575 0.389019L21.7748 3.45043C21.8617 3.6691 22.0583 3.81851 22.284 3.83743L25.4436 4.1024C25.979 4.14729 26.196 4.84611 25.7882 5.21157L23.3809 7.36859C23.2089 7.52266 23.1338 7.76441 23.1863 7.99477L23.9218 11.2199C24.0464 11.7664 23.4781 12.1983 23.0198 11.9055L20.3147 10.1C20.1215 9.97655 19.8785 9.97655 19.6853 10.1L16.9802 11.9055C16.5219 12.1983 15.9536 11.7664 16.0782 11.2199L16.8137 7.99477C16.8662 7.76441 16.7911 7.52266 16.6191 7.36859L14.2118 5.21157C13.804 4.84611 14.021 4.14729 14.5564 4.1024L17.716 3.83743C17.9417 3.81851 18.1383 3.6691 18.2252 3.45043L19.4425 0.389018Z" fill="white"/>
<path d="M33.4425 0.389018C33.6488 -0.129673 34.3512 -0.129672 34.5575 0.389019L35.7748 3.45043C35.8617 3.6691 36.0583 3.81851 36.284 3.83743L39.4436 4.1024C39.979 4.14729 40.196 4.84611 39.7882 5.21157L37.3809 7.36859C37.2089 7.52266 37.1338 7.76441 37.1863 7.99477L37.9218 11.2199C38.0464 11.7664 37.4781 12.1983 37.0198 11.9055L34.3147 10.1C34.1215 9.97655 33.8785 9.97655 33.6853 10.1L30.9802 11.9055C30.5219 12.1983 29.9536 11.7664 30.0782 11.2199L30.8137 7.99477C30.8662 7.76441 30.7911 7.52266 30.6191 7.36859L28.2118 5.21157C27.804 4.84611 28.021 4.14729 28.5564 4.1024L31.716 3.83743C31.9417 3.81851 32.1383 3.6691 32.2252 3.45043L33.4425 0.389018Z" fill="white"/>
<path d="M47.4425 0.389018C47.6488 -0.129673 48.3512 -0.129672 48.5575 0.389019L49.7748 3.45043C49.8617 3.6691 50.0583 3.81851 50.284 3.83743L53.4436 4.1024C53.979 4.14729 54.196 4.84611 53.7882 5.21157L51.3809 7.36859C51.2089 7.52266 51.1338 7.76441 51.1863 7.99477L51.9218 11.2199C52.0464 11.7664 51.4781 12.1983 51.0198 11.9055L48.3147 10.1C48.1215 9.97655 47.8785 9.97655 47.6853 10.1L44.9802 11.9055C44.5219 12.1983 43.9536 11.7664 44.0782 11.2199L44.8137 7.99477C44.8662 7.76441 44.7911 7.52266 44.6191 7.36859L42.2118 5.21157C41.804 4.84611 42.021 4.14729 42.5564 4.1024L45.716 3.83743C45.9417 3.81851 46.1383 3.6691 46.2252 3.45043L47.4425 0.389018Z" fill="white"/>
<path d="M61.4425 0.389018C61.6488 -0.129673 62.3512 -0.129672 62.5575 0.389019L63.7748 3.45043C63.8617 3.6691 64.0583 3.81851 64.284 3.83743L67.4436 4.1024C67.979 4.14729 68.196 4.84611 67.7882 5.21157L65.3809 7.36859C65.2089 7.52266 65.1338 7.76441 65.1863 7.99477L65.9218 11.2199C66.0464 11.7664 65.4781 12.1983 65.0198 11.9055L62.3147 10.1C62.1215 9.97655 61.8785 9.97655 61.6853 10.1L58.9802 11.9055C58.5219 12.1983 57.9536 11.7664 58.0782 11.2199L58.8137 7.99477C58.8662 7.76441 58.7911 7.52266 58.6191 7.36859L56.2118 5.21157C55.804 4.84611 56.021 4.14729 56.5564 4.1024L59.716 3.83743C59.9417 3.81851 60.1383 3.6691 60.2252 3.45043L61.4425 0.389018Z" fill="white"/>
</svg>
