<svg width="24" height="24" viewBox="0 0 24 24" fill="none" xmlns="http://www.w3.org/2000/svg">
<path d="M12 0.375C5.57812 0.375 0.375 5.57812 0.375 12C0.375 18.4219 5.57812 23.625 12 23.625C18.4219 23.625 23.625 18.4219 23.625 12C23.625 5.57812 18.4219 0.375 12 0.375ZM4.80937 7.91719L6.44531 7.68281L7.17188 6.20156C7.30781 5.92969 7.6875 5.92969 7.82344 6.20156L8.55 7.68281L10.1859 7.91719C10.4766 7.96406 10.6031 8.32031 10.3875 8.53594L9.19687 9.68906L9.47812 11.325C9.525 11.6156 9.22969 11.8406 8.9625 11.6953L7.5 10.9359L6.03281 11.7C5.76562 11.8453 5.47031 11.6203 5.51719 11.3297L5.79844 9.69375L4.60781 8.54062C4.39219 8.32031 4.51875 7.96406 4.80937 7.91719ZM12 20.25C9.15938 20.25 5.69531 18.4547 5.25937 15.8766C5.16562 15.3234 5.69531 14.8687 6.22969 15.0375C7.64531 15.4922 9.75 15.75 12 15.75C14.25 15.75 16.3547 15.4922 17.7703 15.0375C18.3094 14.8641 18.8297 15.3234 18.7406 15.8766C18.3047 18.4547 14.8406 20.25 12 20.25ZM19.3922 8.53594L18.2016 9.68906L18.4828 11.325C18.5297 11.6156 18.2344 11.8406 17.9672 11.6953L16.5 10.9359L15.0328 11.7C14.7656 11.8453 14.4703 11.6203 14.5172 11.3297L14.7984 9.69375L13.6078 8.54062C13.3969 8.325 13.5188 7.96875 13.8094 7.92188L15.4453 7.6875L16.1719 6.20625C16.3078 5.93437 16.6875 5.93437 16.8234 6.20625L17.55 7.6875L19.1859 7.92188C19.4812 7.96406 19.6078 8.32031 19.3922 8.53594Z" fill="black"/>
</svg>
