<svg width="33" height="33" viewBox="0 0 33 33" fill="none" xmlns="http://www.w3.org/2000/svg">
<path d="M3.10283 16.1863L8.10273 16.1542L8.12846 20.1541C8.14265 22.3603 6.36047 24.1655 4.15427 24.1797L3.65428 24.1829C2.82304 24.1883 2.15861 24.8613 2.16395 25.6926L2.18325 28.6925C2.1886 29.5237 2.86163 30.1882 3.69287 30.1828L4.19286 30.1796C9.71774 30.1441 14.1639 25.6404 14.1283 20.1155L14.0319 5.1158C14.0212 3.45958 12.6688 2.1245 11.0126 2.13515L3.01279 2.18661C1.35658 2.19726 0.0214968 3.54962 0.032149 5.20584L0.0836014 13.2057C0.0942537 14.8619 1.44662 16.197 3.10283 16.1863ZM21.1025 16.0705L26.1024 16.0384L26.1281 20.0383C26.1423 22.2445 24.3601 24.0498 22.1539 24.064L21.6539 24.0672C20.8227 24.0725 20.1582 24.7456 20.1636 25.5768L20.1829 28.5767C20.1882 29.408 20.8613 30.0724 21.6925 30.067L22.1925 30.0638C27.7174 30.0283 32.1635 25.5246 32.128 19.9997L32.0315 5.00003C32.0208 3.34381 30.6685 2.00873 29.0123 2.01939L21.0124 2.07084C19.3562 2.08149 18.0211 3.43385 18.0318 5.09007L18.0832 13.0899C18.0939 14.7461 19.4462 16.0812 21.1025 16.0705Z" fill="#3F3F3F"/>
</svg>
