<svg width="136" height="53" viewBox="0 0 136 53" fill="none" xmlns="http://www.w3.org/2000/svg">
<path d="M0.892 50L4.636 41.6H6.556L10.312 50H8.272L5.2 42.584H5.968L2.884 50H0.892ZM2.764 48.2L3.28 46.724H7.6L8.128 48.2H2.764ZM17.7355 43.448C18.2475 43.448 18.7035 43.552 19.1035 43.76C19.5115 43.96 19.8315 44.272 20.0635 44.696C20.2955 45.112 20.4115 45.648 20.4115 46.304V50H18.5395V46.592C18.5395 46.072 18.4235 45.688 18.1915 45.44C17.9675 45.192 17.6475 45.068 17.2315 45.068C16.9355 45.068 16.6675 45.132 16.4275 45.26C16.1955 45.38 16.0115 45.568 15.8755 45.824C15.7475 46.08 15.6835 46.408 15.6835 46.808V50H13.8115V43.544H15.5995V45.332L15.2635 44.792C15.4955 44.36 15.8275 44.028 16.2595 43.796C16.6915 43.564 17.1835 43.448 17.7355 43.448ZM25.5672 52.424C25.2312 52.424 24.8992 52.372 24.5712 52.268C24.2432 52.164 23.9752 52.02 23.7672 51.836L24.4512 50.504C24.5952 50.632 24.7592 50.732 24.9432 50.804C25.1352 50.876 25.3232 50.912 25.5072 50.912C25.7712 50.912 25.9792 50.848 26.1312 50.72C26.2912 50.6 26.4352 50.396 26.5632 50.108L26.8992 49.316L27.0432 49.112L29.3592 43.544H31.1592L28.2432 50.396C28.0352 50.916 27.7952 51.324 27.5232 51.62C27.2592 51.916 26.9632 52.124 26.6352 52.244C26.3152 52.364 25.9592 52.424 25.5672 52.424ZM26.6712 50.252L23.7912 43.544H25.7232L27.9552 48.944L26.6712 50.252ZM37.4988 50.096C36.7388 50.096 36.1468 49.904 35.7228 49.52C35.2988 49.128 35.0868 48.548 35.0868 47.78V42.116H36.9588V47.756C36.9588 48.028 37.0308 48.24 37.1748 48.392C37.3188 48.536 37.5148 48.608 37.7628 48.608C38.0588 48.608 38.3108 48.528 38.5188 48.368L39.0228 49.688C38.8308 49.824 38.5988 49.928 38.3268 50C38.0628 50.064 37.7868 50.096 37.4988 50.096ZM34.0908 45.128V43.688H38.5668V45.128H34.0908ZM42.8337 50V43.544H44.7057V50H42.8337ZM43.7697 42.644C43.4257 42.644 43.1457 42.544 42.9297 42.344C42.7137 42.144 42.6057 41.896 42.6057 41.6C42.6057 41.304 42.7137 41.056 42.9297 40.856C43.1457 40.656 43.4257 40.556 43.7697 40.556C44.1137 40.556 44.3937 40.652 44.6097 40.844C44.8257 41.028 44.9337 41.268 44.9337 41.564C44.9337 41.876 44.8257 42.136 44.6097 42.344C44.4017 42.544 44.1217 42.644 43.7697 42.644ZM57.4711 43.448C57.9831 43.448 58.4351 43.552 58.8271 43.76C59.2271 43.96 59.5391 44.272 59.7631 44.696C59.9951 45.112 60.1111 45.648 60.1111 46.304V50H58.2391V46.592C58.2391 46.072 58.1311 45.688 57.9151 45.44C57.6991 45.192 57.3951 45.068 57.0031 45.068C56.7311 45.068 56.4871 45.132 56.2711 45.26C56.0551 45.38 55.8871 45.564 55.7671 45.812C55.6471 46.06 55.5871 46.376 55.5871 46.76V50H53.7151V46.592C53.7151 46.072 53.6071 45.688 53.3911 45.44C53.1831 45.192 52.8831 45.068 52.4911 45.068C52.2191 45.068 51.9751 45.132 51.7591 45.26C51.5431 45.38 51.3751 45.564 51.2551 45.812C51.1351 46.06 51.0751 46.376 51.0751 46.76V50H49.2031V43.544H50.9911V45.308L50.6551 44.792C50.8791 44.352 51.1951 44.02 51.6031 43.796C52.0191 43.564 52.4911 43.448 53.0191 43.448C53.6111 43.448 54.1271 43.6 54.5671 43.904C55.0151 44.2 55.3111 44.656 55.4551 45.272L54.7951 45.092C55.0111 44.588 55.3551 44.188 55.8271 43.892C56.3071 43.596 56.8551 43.448 57.4711 43.448ZM67.7999 50.096C67.0639 50.096 66.4159 49.952 65.8559 49.664C65.3039 49.376 64.8759 48.984 64.5719 48.488C64.2679 47.984 64.1159 47.412 64.1159 46.772C64.1159 46.124 64.2639 45.552 64.5599 45.056C64.8639 44.552 65.2759 44.16 65.7959 43.88C66.3159 43.592 66.9039 43.448 67.5599 43.448C68.1919 43.448 68.7599 43.584 69.2639 43.856C69.7759 44.12 70.1799 44.504 70.4759 45.008C70.7719 45.504 70.9199 46.1 70.9199 46.796C70.9199 46.868 70.9159 46.952 70.9079 47.048C70.8999 47.136 70.8919 47.22 70.8839 47.3H65.6399V46.208H69.8999L69.1799 46.532C69.1799 46.196 69.1119 45.904 68.9759 45.656C68.8399 45.408 68.6519 45.216 68.4119 45.08C68.1719 44.936 67.8919 44.864 67.5719 44.864C67.2519 44.864 66.9679 44.936 66.7199 45.08C66.4799 45.216 66.2919 45.412 66.1559 45.668C66.0199 45.916 65.9519 46.212 65.9519 46.556V46.844C65.9519 47.196 66.0279 47.508 66.1799 47.78C66.3399 48.044 66.5599 48.248 66.8399 48.392C67.1279 48.528 67.4639 48.596 67.8479 48.596C68.1919 48.596 68.4919 48.544 68.7479 48.44C69.0119 48.336 69.2519 48.18 69.4679 47.972L70.4639 49.052C70.1679 49.388 69.7959 49.648 69.3479 49.832C68.8999 50.008 68.3839 50.096 67.7999 50.096Z" fill="white"/>
<g clip-path="url(#clip0_189_337)">
<g clip-path="url(#clip1_189_337)">
<g clip-path="url(#clip2_189_337)">
<path d="M32.796 1.32055C32.796 0.583948 32.2079 -0.0131836 31.4824 -0.0131836C30.757 -0.0131836 30.1689 0.583948 30.1689 1.32055V27.6799C30.1689 28.4165 30.757 29.0136 31.4824 29.0136C32.2079 29.0136 32.796 28.4165 32.796 27.6799V1.32055Z" fill="white"/>
<g clip-path="url(#clip3_189_337)">
<g clip-path="url(#clip4_189_337)">
<g clip-path="url(#clip5_189_337)">
<g clip-path="url(#clip6_189_337)">
<path d="M48.8588 27.9226V28.333C48.8588 28.4273 48.8113 28.4745 48.7161 28.4745H39.8168C39.7217 28.4745 39.6741 28.4273 39.6741 28.333V27.9226C39.6741 27.8282 39.7502 27.7811 39.9025 27.7811C41.4915 27.715 42.5668 26.8754 43.1282 25.2622L50.2362 4.86338C50.2457 4.83979 50.2505 4.80913 50.2505 4.7714L50.0578 4.20535C50.0578 4.14875 50.0816 4.12045 50.1291 4.12045H53.6118C53.6356 4.12988 53.6689 4.13931 53.7117 4.14875C53.7497 4.1629 53.7807 4.19828 53.8045 4.25488L61.1765 24.7598C61.3383 25.0711 61.4691 25.3542 61.569 25.6089C61.6689 25.8589 61.7807 26.0877 61.9044 26.2952C62.1851 26.7669 62.6443 27.1301 63.2818 27.3848C63.8194 27.649 64.3071 27.7811 64.7448 27.7811C64.8399 27.7811 64.8875 27.833 64.8875 27.9367V28.333C64.8875 28.4273 64.8399 28.4745 64.7448 28.4745H54.0828C53.9924 28.4745 53.9472 28.4273 53.9472 28.333V27.9226C53.9472 27.8282 54.1613 27.7693 54.5895 27.7457C55.0177 27.7268 55.3721 27.7056 55.6528 27.682C57.2657 27.5075 58.0721 26.965 58.0721 26.0546C58.0721 25.9886 58.0602 25.9084 58.0364 25.8141L55.4102 18.4555C55.3959 18.4319 55.3721 18.38 55.3388 18.2998C55.2008 17.9083 54.9558 17.7126 54.6037 17.7126H48.4235C48.0762 17.7126 47.8026 17.9036 47.6028 18.2857C47.5695 18.3659 47.5528 18.4107 47.5528 18.4201L44.9409 26.0051V26.1608C44.9409 26.4579 45.0955 26.7292 45.4047 26.9745C46.1136 27.5122 47.0676 27.7811 48.2665 27.7811H48.7161C48.8113 27.7811 48.8588 27.8282 48.8588 27.9226ZM48.8731 15.7951H54.0114C54.2208 15.7951 54.3254 15.7078 54.3254 15.5333C54.3254 15.4437 54.304 15.3399 54.2612 15.222L51.6635 8.13936C51.5446 7.83275 51.4565 7.67945 51.3994 7.67945C51.3423 7.67945 51.2496 7.83983 51.1211 8.16058L48.6804 15.222C48.6376 15.3399 48.6162 15.4649 48.6162 15.597C48.6162 15.7291 48.7018 15.7951 48.8731 15.7951ZM74.6432 15.0663V16.6583C74.6432 16.913 74.548 17.0404 74.3577 17.0404C74.1626 17.0404 74.0128 16.9012 73.9081 16.6229C73.6321 15.8635 73.2182 15.1913 72.6663 14.6064C72.1144 14.0168 71.4317 13.722 70.6182 13.722C69.5477 13.722 68.8269 14.2526 68.4558 15.314C68.3416 15.6677 68.2845 16.0357 68.2845 16.4177C68.2845 16.7951 68.5271 17.2173 69.0124 17.6843C69.5025 18.1513 70.3041 18.7079 71.4174 19.3541C72.5355 20.0003 73.3491 20.5475 73.8581 20.9956C75.019 22.0192 75.5995 23.2056 75.5995 24.5546C75.5995 25.899 75.0999 26.9674 74.1008 27.7598C73.1017 28.5476 71.9408 28.9415 70.6182 28.9415C69.9093 28.9415 69.267 28.8471 68.6913 28.6584C68.1156 28.465 67.7849 28.3683 67.6993 28.3683C67.6137 28.3683 67.4733 28.465 67.2782 28.6584C67.0879 28.8471 66.9357 28.9415 66.8215 28.9415H66.5218C66.4552 28.9415 66.3695 28.3188 66.2649 27.0735C66.1602 25.8329 66.1079 25.0971 66.1079 24.8659C66.1079 24.6348 66.1269 24.5075 66.1649 24.4839C66.2078 24.4603 66.2744 24.4485 66.3648 24.4485C66.4599 24.4485 66.5384 24.4768 66.6003 24.5334C66.6669 24.5947 66.7216 24.6678 66.7644 24.7527C66.812 24.8376 66.8501 24.9273 66.8786 25.0216C66.9072 25.1112 66.9809 25.2834 67.0998 25.5381C67.8896 27.208 69.1076 28.0429 70.7537 28.0429C71.4864 28.0429 72.074 27.774 72.5165 27.2363C72.9589 26.7032 73.1802 26.1089 73.1802 25.4532C73.1802 24.7976 73.0065 24.2433 72.6592 23.7905C72.3071 23.3423 71.8742 22.9343 71.3604 22.5664C70.8418 22.1985 70.2804 21.8423 69.6761 21.498C67.3306 20.1395 66.1578 18.6348 66.1578 16.9838C66.1578 15.7526 66.6931 14.6913 67.7635 13.7998C68.8293 12.9083 69.9259 12.4625 71.0535 12.4625C72.1811 12.4625 73.0136 12.5828 73.5513 12.8234C74.0936 13.0639 74.41 13.2691 74.5004 13.4389C74.5956 13.604 74.6432 14.1465 74.6432 15.0663ZM83.3141 20.2032H83.2998C83.1618 20.2032 83.0928 20.4838 83.0928 21.0452V25.8494C83.0928 26.9768 83.7185 27.6325 84.9697 27.8165C85.5169 27.8872 85.7904 28.0146 85.7904 28.1985C85.7904 28.3825 85.7333 28.4745 85.6192 28.4745H77.8475C77.7285 28.4509 77.6691 28.3707 77.6691 28.2339C77.6691 28.0264 77.9426 27.8872 78.4898 27.8165C79.7458 27.6325 80.3738 26.9768 80.3738 25.8494V4.30441C80.3738 3.82327 80.1074 3.49072 79.5745 3.30676C79.3414 3.22657 79.0916 3.16053 78.8252 3.10864C78.554 3.05676 78.3399 3.00723 78.1829 2.96005C78.0259 2.91288 77.9283 2.87043 77.8903 2.8327C77.8475 2.79024 77.8261 2.70298 77.8261 2.5709C77.8261 2.43882 77.9141 2.32797 78.0901 2.23835L82.5362 0.165216C82.6741 0.0944608 82.7598 0.059082 82.7931 0.059082C82.9929 0.059082 83.0928 0.195875 83.0928 0.469462V17.7126C83.1832 18.0475 83.3045 18.2432 83.4568 18.2998C83.609 18.3564 83.7708 18.3847 83.9421 18.3847C84.2799 18.3847 84.8341 18.123 85.6049 17.5994C86.3804 17.0758 87.0821 16.4885 87.7102 15.8376C88.3382 15.1866 88.6522 14.7385 88.6522 14.4932C88.6522 14.2432 88.5404 14.0875 88.3168 14.0262C88.0979 13.9602 87.8505 13.913 87.5746 13.8847C87.3034 13.8564 87.0584 13.8116 86.8395 13.7503C86.6159 13.6842 86.5041 13.5309 86.5041 13.2904C86.5041 13.0498 86.742 12.9295 87.2177 12.9295H93.8547C94.2639 12.9295 94.4685 13.0616 94.4685 13.3257C94.4685 13.4625 94.3353 13.571 94.0688 13.6512C93.8024 13.7314 93.2838 13.8564 92.5131 14.0262C91.7471 14.1913 91.1381 14.4531 90.6861 14.8116L85.6834 18.6819C85.6834 18.8281 85.7952 19.0121 86.0188 19.2338L93.1768 26.7127C93.643 27.1844 94.1188 27.4933 94.6041 27.6396C95.0941 27.7811 95.42 27.8754 95.5818 27.9226C95.7435 27.9698 95.8244 28.0499 95.8244 28.1632C95.8244 28.3707 95.7316 28.4745 95.5461 28.4745H87.9029C87.7839 28.4745 87.7244 28.4061 87.7244 28.2693C87.7244 28.0617 87.8695 27.9297 88.1598 27.8731C89.0304 27.708 89.4658 27.4131 89.4658 26.9886C89.4658 26.8613 89.3801 26.6938 89.2088 26.4862C89.0328 26.2787 88.8687 26.0782 88.7164 25.8848L83.3355 20.2315C83.3355 20.222 83.3283 20.2126 83.3141 20.2032ZM106.001 4.80677C104.05 4.80677 103.075 5.57801 103.075 7.12048V19.4885C103.075 21.7716 103.836 23.6348 105.359 25.0782C106.877 26.5263 108.827 27.2504 111.211 27.2504C113.685 27.2504 115.714 26.59 117.298 25.2693C118.883 23.9532 119.675 22.1254 119.675 19.7857V8.79738C119.675 7.70303 119.577 6.94359 119.382 6.51906C118.883 5.37753 117.755 4.80677 115.999 4.80677C115.909 4.80677 115.864 4.76196 115.864 4.67234V4.25488C115.864 4.16526 115.909 4.12045 115.999 4.12045H124.57C124.666 4.12045 124.713 4.16526 124.713 4.25488V4.67234C124.713 4.76196 124.585 4.80677 124.328 4.80677C122.805 4.80677 121.878 5.39404 121.545 6.56859C121.483 6.7667 121.452 6.95066 121.452 7.12048V18.4414C121.452 23.4933 119.501 26.7457 115.6 28.1985C114.287 28.6938 112.981 28.9415 111.682 28.9415C107.024 28.9415 103.591 27.7315 101.384 25.3117C100.247 24.0711 99.6781 22.5334 99.6781 20.6985V6.87991C99.6781 5.90348 99.0787 5.25961 97.8797 4.94828C97.5324 4.85394 97.2375 4.80677 96.9948 4.80677C96.7474 4.80677 96.6237 4.76196 96.6237 4.67234V4.25488C96.6237 4.16526 96.6665 4.12045 96.7522 4.12045H106.194C106.284 4.12045 106.329 4.16526 106.329 4.25488V4.67234C106.329 4.76196 106.22 4.80677 106.001 4.80677ZM134.797 15.0663V16.6583C134.797 16.913 134.702 17.0404 134.512 17.0404C134.321 17.0404 134.174 16.9012 134.069 16.6229C133.788 15.8635 133.372 15.1913 132.82 14.6064C132.268 14.0168 131.586 13.722 130.772 13.722C129.706 13.722 128.988 14.2526 128.617 15.314C128.498 15.6677 128.438 16.0357 128.438 16.4177C128.438 16.7951 128.683 17.2173 129.173 17.6843C129.659 18.1513 130.46 18.7079 131.578 19.3541C132.692 20.0003 133.503 20.5475 134.012 20.9956C135.178 22.0192 135.761 23.2056 135.761 24.5546C135.761 25.899 135.261 26.9674 134.262 27.7598C133.263 28.5476 132.099 28.9415 130.772 28.9415C130.063 28.9415 129.423 28.8471 128.852 28.6584C128.277 28.465 127.944 28.3683 127.853 28.3683C127.768 28.3683 127.63 28.465 127.439 28.6584C127.249 28.8471 127.094 28.9415 126.975 28.9415H126.683C126.611 28.9415 126.523 28.3188 126.419 27.0735C126.314 25.8329 126.262 25.0971 126.262 24.8659C126.262 24.6348 126.283 24.5075 126.326 24.4839C126.364 24.4603 126.431 24.4485 126.526 24.4485C126.616 24.4485 126.695 24.4768 126.761 24.5334C126.823 24.5947 126.878 24.6678 126.925 24.7527C126.973 24.8376 127.011 24.9273 127.04 25.0216C127.068 25.1112 127.14 25.2834 127.254 25.5381C128.044 27.208 129.264 28.0429 130.915 28.0429C131.647 28.0429 132.233 27.774 132.67 27.2363C133.113 26.7032 133.334 26.1089 133.334 25.4532C133.334 24.7976 133.16 24.2433 132.813 23.7905C132.466 23.3423 132.033 22.9343 131.514 22.5664C130.996 22.1985 130.434 21.8423 129.83 21.498C127.484 20.1395 126.312 18.6348 126.312 16.9838C126.312 15.7526 126.847 14.6913 127.917 13.7998C128.988 12.9083 130.085 12.4625 131.207 12.4625C132.335 12.4625 133.17 12.5828 133.712 12.8234C134.25 13.0639 134.566 13.2691 134.661 13.4389C134.752 13.604 134.797 14.1465 134.797 15.0663Z" fill="white"/>
</g>
</g>
</g>
</g>
<g clip-path="url(#clip7_189_337)">
<g clip-path="url(#clip8_189_337)">
<path d="M17.6005 16.9512H17.3871C18.9166 15.7169 19.841 13.8479 19.7347 11.7672C19.5885 8.43603 16.7686 5.66628 13.3322 5.66628C9.85599 5.66628 6.9297 8.49704 6.9297 12.0141C6.9297 13.2836 7.32096 14.5179 7.99678 15.5053C7.32096 14.7648 6.9297 13.7773 6.9297 12.7194V12.0141V2.95085C6.9297 1.39917 5.68477 0.0943475 4.15528 0.059082C4.11971 0.059082 4.08414 0.059082 4.08414 0.059082C2.55145 0.059082 1.23859 1.2306 1.23859 2.84505V13.9184C1.23859 17.5155 2.80364 20.9009 5.50692 23.2637V28.2362C5.50692 28.6241 5.82704 28.9415 6.21831 28.9415H22.5802C22.9715 28.9415 23.2916 28.6241 23.2916 28.2362V22.5937C23.2916 19.4903 20.7306 16.9512 17.6005 16.9512ZM19.0233 22.4174C18.7387 22.4174 18.4898 22.6642 18.4898 22.9463V27.8835H6.574V22.9463C6.574 22.8405 6.53843 22.7347 6.43172 22.6642C3.79959 20.513 2.30567 17.3039 2.30567 13.9184V2.84505C2.30567 1.85762 3.0882 1.08178 4.08414 1.08178C5.08009 1.08178 5.86261 1.85762 5.86261 2.84505V12.7194C5.86261 15.6464 8.24577 18.0092 11.198 18.0092H17.6005C20.1615 18.0092 22.2246 20.0546 22.2246 22.5937V27.8835H19.5568V22.9463C19.5568 22.6642 19.3079 22.4174 19.0233 22.4174ZM13.3322 6.72425C16.2845 6.72425 18.6676 9.08703 18.6676 12.0141C18.6676 14.9411 16.2845 17.3039 13.3322 17.3039C10.3799 17.3039 7.99678 14.9411 7.99678 12.0141C7.99678 9.08703 10.3799 6.72425 13.3322 6.72425Z" fill="white"/>
</g>
</g>
</g>
</g>
</g>
<defs>
<clipPath id="clip0_189_337">
<rect width="135" height="29" fill="white" transform="translate(1)"/>
</clipPath>
<clipPath id="clip1_189_337">
<rect width="134.523" height="29.0268" fill="white" transform="translate(1.23862 -0.0131836)"/>
</clipPath>
<clipPath id="clip2_189_337">
<rect width="134.523" height="29.0268" fill="white" transform="translate(1.23862 -0.0131836)"/>
</clipPath>
<clipPath id="clip3_189_337">
<rect width="96.0882" height="28.8824" fill="white" transform="translate(39.6732 0.059082)"/>
</clipPath>
<clipPath id="clip4_189_337">
<rect width="96.0882" height="28.8824" fill="white" transform="translate(39.6732 0.059082)"/>
</clipPath>
<clipPath id="clip5_189_337">
<rect width="96.0882" height="28.8824" fill="white" transform="translate(39.6732 0.059082)"/>
</clipPath>
<clipPath id="clip6_189_337">
<rect width="96.0882" height="28.8824" fill="white" transform="translate(39.6732 0.059082)"/>
</clipPath>
<clipPath id="clip7_189_337">
<rect width="22.053" height="28.8824" fill="white" transform="translate(1.23859 0.059082)"/>
</clipPath>
<clipPath id="clip8_189_337">
<rect width="22.053" height="28.8824" fill="white" transform="translate(1.23859 0.059082)"/>
</clipPath>
</defs>
</svg>
