<svg width="200" height="200" viewBox="0 0 200 200" fill="none" xmlns="http://www.w3.org/2000/svg">
<circle cx="100" cy="100" r="78.5" fill="#0580FE" stroke="#0024FE" stroke-width="3"/>
<path d="M111.033 88.9674C120.369 98.3126 120.241 113.295 111.089 122.497C111.072 122.516 111.052 122.536 111.033 122.555L100.533 133.055C91.2722 142.316 76.2052 142.315 66.9457 133.055C57.6847 123.796 57.6847 108.727 66.9457 99.4674L72.7435 93.6696C74.281 92.1321 76.9288 93.154 77.0082 95.3268C77.1094 98.0959 77.606 100.878 78.5222 103.564C78.8325 104.474 78.6108 105.48 77.9311 106.16L75.8863 108.205C71.5072 112.584 71.3699 119.714 75.7058 124.136C80.0846 128.602 87.2818 128.628 91.6941 124.216L102.194 113.717C106.599 109.313 106.581 102.193 102.194 97.8065C101.616 97.2293 101.033 96.7809 100.578 96.4676C100.256 96.2465 99.9907 95.9533 99.8022 95.6114C99.6137 95.2694 99.5078 94.8881 99.4929 94.4979C99.431 92.8468 100.016 91.1454 101.321 89.8407L104.61 86.5509C105.473 85.6882 106.826 85.5823 107.827 86.2804C108.972 87.0803 110.045 87.9795 111.033 88.9674ZM133.054 66.9452C123.795 57.6855 108.728 57.6843 99.4668 66.9452L88.9668 77.4452C88.948 77.464 88.9277 77.4843 88.9105 77.503C79.7596 86.7049 79.6313 101.688 88.9668 111.033C89.9547 112.021 91.0276 112.92 92.1732 113.72C93.1735 114.418 94.5269 114.312 95.3894 113.449L98.6791 110.159C99.9838 108.855 100.569 107.153 100.507 105.502C100.492 105.112 100.386 104.731 100.198 104.389C100.009 104.047 99.7433 103.753 99.4215 103.532C98.9664 103.219 98.3839 102.771 97.8057 102.194C93.4193 97.8071 93.4008 90.6874 97.8057 86.2826L108.306 75.7841C112.718 71.3718 119.915 71.3984 124.294 75.8638C128.63 80.2857 128.493 87.416 124.113 91.7951L122.069 93.8399C121.389 94.5196 121.167 95.5259 121.478 96.4355C122.394 99.1221 122.89 101.904 122.992 104.673C123.071 106.846 125.719 107.868 127.256 106.33L133.054 100.533C142.315 91.2734 142.315 76.2046 133.054 66.9452Z" fill="white"/>
<circle cx="100" cy="100" r="89.5" stroke="#CBCBCB"/>
<circle cx="100" cy="100" r="99.5" stroke="#CBCBCB"/>
</svg>
