<svg width="202" height="202" viewBox="0 0 202 202" fill="none" xmlns="http://www.w3.org/2000/svg">
<circle cx="80.5191" cy="80.5191" r="79.0191" transform="matrix(-1 0 0 1 181.605 20.1299)" fill="#0580FE" stroke="#0024FE" stroke-width="3"/>
<circle cx="90.584" cy="90.584" r="90.084" transform="matrix(-1 0 0 1 191.67 10.0649)" stroke="#CBCBCB"/>
<circle cx="100.649" cy="100.649" r="100.149" transform="matrix(-1 0 0 1 201.735 0)" stroke="#CBCBCB"/>
<path d="M93 111H92.9975C92.9975 108.978 93.165 109.909 82.3662 88.3113C80.16 83.9 73.8425 83.8913 71.6325 88.3113C60.7425 110.094 61.0025 109.041 61.0025 111H61C61 116.522 68.1637 121 77 121C85.8363 121 93 116.522 93 111ZM77 91L86 109H68L77 91ZM140.997 111C140.997 108.978 141.165 109.909 130.366 88.3113C128.16 83.9 121.842 83.8913 119.632 88.3113C108.743 110.094 109.002 109.041 109.002 111H109C109 116.522 116.164 121 125 121C133.836 121 141 116.522 141 111H140.997ZM116 109L125 91L134 109H116ZM127 125H105V88.1562C107.939 86.87 110.145 84.2213 110.799 81H127C128.105 81 129 80.105 129 79V75C129 73.895 128.105 73 127 73H108.955C107.13 70.585 104.261 69 101 69C97.7388 69 94.87 70.585 93.045 73H75C73.895 73 73 73.895 73 75V79C73 80.105 73.895 81 75 81H91.2013C91.855 84.22 94.06 86.87 97 88.1562V125H75C73.895 125 73 125.895 73 127V131C73 132.105 73.895 133 75 133H127C128.105 133 129 132.105 129 131V127C129 125.895 128.105 125 127 125Z" fill="white"/>
</svg>
