<svg width="202" height="202" viewBox="0 0 202 202" fill="none" xmlns="http://www.w3.org/2000/svg">
<circle cx="80.5191" cy="80.5191" r="79.0191" transform="matrix(-1 0 0 1 181.605 20.1299)" fill="#0580FE" stroke="#0024FE" stroke-width="3"/>
<path d="M123 97C113.05 97 105 105.05 105 115C105 124.95 113.05 133 123 133C132.95 133 141 124.95 141 115C141 105.05 132.95 97 123 97ZM131 115.787C131 116.45 130.45 117 129.787 117H122.213C121.55 117 121 116.45 121 115.787V106.213C121 105.55 121.55 105 122.213 105H123.787C124.45 105 125 105.55 125 106.213V113H129.787C130.45 113 131 113.55 131 114.213V115.787ZM101 115C101 111.525 101.838 108.237 103.275 105.312C102.275 105.125 101.25 105 100.2 105H98.1125C95.3375 106.275 92.25 107 89 107C85.75 107 82.675 106.275 79.8875 105H77.8C68.525 105 61 112.525 61 121.8V127C61 130.312 63.6875 133 67 133H110.388C104.725 129.013 101 122.438 101 115ZM89 101C97.8375 101 105 93.8375 105 85C105 76.1625 97.8375 69 89 69C80.1625 69 73 76.1625 73 85C73 93.8375 80.1625 101 89 101Z" fill="white"/>
<circle cx="90.584" cy="90.584" r="90.084" transform="matrix(-1 0 0 1 191.67 10.0649)" stroke="#CBCBCB"/>
<circle cx="100.649" cy="100.649" r="100.149" transform="matrix(-1 0 0 1 201.735 0)" stroke="#CBCBCB"/>
</svg>
