<svg width="200" height="200" viewBox="0 0 200 200" fill="none" xmlns="http://www.w3.org/2000/svg">
<circle cx="100" cy="100" r="78.5" fill="#0580FE" stroke="#0024FE" stroke-width="3"/>
<path d="M132.395 82.3272C127.961 77.9729 122.055 75.3781 115.802 75.0382C109.549 74.6982 103.388 76.6369 98.4945 80.4842H80.4623C80.1207 80.4842 79.7931 80.6178 79.5515 80.8556C79.31 81.0934 79.1743 81.416 79.1743 81.7523C79.1743 82.0887 79.31 82.4112 79.5515 82.6491C79.7931 82.8869 80.1207 83.0205 80.4623 83.0205H95.7467C94.3198 84.5307 93.0882 86.209 92.0802 88.0171H71.824C71.4824 88.0171 71.1548 88.1507 70.9132 88.3885C70.6717 88.6264 70.536 88.9489 70.536 89.2853C70.536 89.6216 70.6717 89.9442 70.9132 90.182C71.1548 90.4198 71.4824 90.5534 71.824 90.5534H90.8437C89.2845 94.3221 88.6746 98.4063 89.0662 102.457H80.4794C80.1378 102.457 79.8102 102.591 79.5687 102.829C79.3271 103.067 79.1914 103.389 79.1914 103.726C79.1914 104.062 79.3271 104.384 79.5687 104.622C79.8102 104.86 80.1378 104.994 80.4794 104.994H89.4526C89.7837 106.631 90.2813 108.231 90.9381 109.77H71.824C71.4824 109.77 71.1548 109.904 70.9132 110.142C70.6717 110.38 70.536 110.702 70.536 111.039C70.536 111.375 70.6717 111.698 70.9132 111.935C71.1548 112.173 71.4824 112.307 71.824 112.307H92.2004C93.1767 114.049 94.3647 115.667 95.7381 117.126H68.6984C68.3568 117.126 68.0292 117.259 67.7876 117.497C67.5461 117.735 67.4104 118.058 67.4104 118.394C67.4104 118.73 67.5461 119.053 67.7876 119.291C68.0292 119.529 68.3568 119.662 68.6984 119.662H97.6444C97.87 119.659 98.0914 119.601 98.2884 119.493C103.342 123.619 109.819 125.664 116.368 125.2C122.916 124.736 129.029 121.799 133.431 117.003C137.832 112.207 140.182 105.922 139.989 99.4601C139.796 92.9987 137.075 86.8605 132.395 82.3272ZM130.575 115.984C127.375 119.133 123.299 121.276 118.862 122.143C114.425 123.011 109.827 122.564 105.648 120.859C101.469 119.153 97.8975 116.267 95.3848 112.563C92.8721 108.86 91.5309 104.506 91.5309 100.052C91.5309 95.5982 92.8721 91.2444 95.3848 87.541C97.8975 83.8376 101.469 80.9508 105.648 79.2455C109.827 77.5403 114.425 77.0932 118.862 77.9608C123.299 78.8283 127.375 80.9716 130.575 84.1196C134.858 88.3494 137.263 94.0789 137.263 100.052C137.263 106.025 134.858 111.755 130.575 115.984Z" fill="white"/>
<path d="M114.397 81.1858C110.608 81.1858 106.904 82.292 103.754 84.3646C100.604 86.4372 98.1483 89.383 96.6983 92.8296C95.2484 96.2761 94.869 100.069 95.6082 103.727C96.3474 107.386 98.1719 110.747 100.851 113.385C103.53 116.023 106.944 117.819 110.66 118.547C114.376 119.275 118.228 118.901 121.728 117.474C125.229 116.046 128.221 113.629 130.326 110.527C132.431 107.425 133.554 103.778 133.554 100.048C133.547 95.0473 131.527 90.2536 127.936 86.7177C124.345 83.1819 119.476 81.1925 114.397 81.1858ZM115.685 116.28V114.801C115.685 114.464 115.549 114.142 115.308 113.904C115.066 113.666 114.739 113.533 114.397 113.533C114.056 113.533 113.728 113.666 113.486 113.904C113.245 114.142 113.109 114.464 113.109 114.801V116.28C109.18 115.974 105.489 114.299 102.7 111.557C99.9099 108.815 98.203 105.184 97.8848 101.316H99.4133C99.7549 101.316 100.082 101.182 100.324 100.944C100.566 100.707 100.701 100.384 100.701 100.048C100.701 99.7114 100.566 99.3888 100.324 99.151C100.082 98.9132 99.7549 98.7795 99.4133 98.7795H97.8848C98.1955 94.9059 99.8992 91.2684 102.69 88.5208C105.48 85.7732 109.175 84.0956 113.109 83.7898V85.2947C113.109 85.631 113.245 85.9536 113.486 86.1914C113.728 86.4292 114.056 86.5628 114.397 86.5628C114.739 86.5628 115.066 86.4292 115.308 86.1914C115.549 85.9536 115.685 85.631 115.685 85.2947V83.7898C119.619 84.0956 123.314 85.7732 126.104 88.5208C128.895 91.2684 130.599 94.9059 130.91 98.7795H129.381C129.039 98.7795 128.712 98.9132 128.47 99.151C128.229 99.3888 128.093 99.7114 128.093 100.048C128.093 100.384 128.229 100.707 128.47 100.944C128.712 101.182 129.039 101.316 129.381 101.316H130.91C130.591 105.184 128.884 108.815 126.095 111.557C123.305 114.299 119.615 115.974 115.685 116.28Z" fill="white"/>
<path d="M121.473 103.007L116.072 99.625L121.679 88.6342C121.782 88.3409 121.772 88.0208 121.651 87.7343C121.53 87.4478 121.307 87.2148 121.023 87.0795C120.74 86.9441 120.416 86.9157 120.113 86.9996C119.809 87.0836 119.548 87.2741 119.377 87.5351L113.247 99.4812C113.103 99.7616 113.069 100.085 113.154 100.388C113.238 100.691 113.433 100.952 113.702 101.121L120.082 105.146C120.287 105.274 120.525 105.341 120.769 105.34C121.047 105.341 121.318 105.254 121.542 105.09C121.765 104.926 121.929 104.696 122.008 104.433C122.088 104.17 122.078 103.889 121.982 103.632C121.885 103.375 121.707 103.156 121.473 103.007ZM76.2376 103.717C76.2376 103.381 76.1019 103.058 75.8603 102.82C75.6188 102.582 75.2912 102.449 74.9496 102.449H61.288C60.9464 102.449 60.6188 102.582 60.3773 102.82C60.1357 103.058 60 103.381 60 103.717C60 104.053 60.1357 104.376 60.3773 104.614C60.6188 104.851 60.9464 104.985 61.288 104.985H74.9667C75.3054 104.981 75.6286 104.845 75.8664 104.608C76.1043 104.37 76.2376 104.05 76.2376 103.717ZM67.5993 83.0119H74.9667C75.3083 83.0119 75.6359 82.8783 75.8775 82.6405C76.119 82.4027 76.2548 82.0801 76.2548 81.7438C76.2548 81.4074 76.119 81.0849 75.8775 80.847C75.6359 80.6092 75.3083 80.4756 74.9667 80.4756H67.5993C67.2577 80.4756 66.9301 80.6092 66.6885 80.847C66.447 81.0849 66.3113 81.4074 66.3113 81.7438C66.3113 82.0801 66.447 82.4027 66.6885 82.6405C66.9301 82.8783 67.2577 83.0119 67.5993 83.0119ZM66.1996 97.6804H83.1757C83.5173 97.6804 83.8449 97.5468 84.0865 97.309C84.328 97.0712 84.4637 96.7486 84.4637 96.4123C84.4637 96.0759 84.328 95.7534 84.0865 95.5155C83.8449 95.2777 83.5173 95.1441 83.1757 95.1441H66.1996C65.858 95.1441 65.5304 95.2777 65.2889 95.5155C65.0473 95.7534 64.9116 96.0759 64.9116 96.4123C64.9116 96.7486 65.0473 97.0712 65.2889 97.309C65.5304 97.5468 65.858 97.6804 66.1996 97.6804Z" fill="white"/>
<circle cx="100" cy="100" r="89.5" stroke="#CBCBCB"/>
<circle cx="100" cy="100" r="99.5" stroke="#CBCBCB"/>
</svg>
